<svg xmlns="http://www.w3.org/2000/svg" width="17" height="21" viewBox="0 0 17 21">
    <g fill="none" fill-rule="evenodd">
        <path d="M-4-2h24v24H-4z"/>
        <path fill="#FFF" d="M5 18v.02A2.99 2.99 0 0 0 8 21c1.657 0 3-1.334 3-2.98V18H5zM16.795 15.246l-2.338-3.262V7.913c0-2.746-2.058-5.034-4.789-5.55V1.11C9.668.497 9.145 0 8.5 0c-.645 0-1.168.497-1.168 1.11v1.253c-2.73.516-4.789 2.804-4.789 5.55v4.07L.205 15.248a1.075 1.075 0 0 0-.068 1.156A1.19 1.19 0 0 0 1.181 17H15.82c.437 0 .84-.23 1.044-.597a1.075 1.075 0 0 0-.068-1.157z"/>
    </g>
</svg>
